<?xml version="1.0" encoding="UTF-8" standalone="no"?>
<!-- Created with Inkscape (http://www.inkscape.org/) -->

<svg
   width="1080"
   height="1080"
   viewBox="0 0 285.74999 285.75001"
   version="1.1"
   id="svg858"
   inkscape:version="1.1.1 (3bf5ae0d25, 2021-09-20)"
   sodipodi:docname="noso-go-logo-screw-drill.svg"
   xmlns:inkscape="http://www.inkscape.org/namespaces/inkscape"
   xmlns:sodipodi="http://sodipodi.sourceforge.net/DTD/sodipodi-0.dtd"
   xmlns="http://www.w3.org/2000/svg"
   xmlns:svg="http://www.w3.org/2000/svg">
  <sodipodi:namedview
     id="namedview860"
     pagecolor="#505050"
     bordercolor="#eeeeee"
     borderopacity="1"
     inkscape:pageshadow="0"
     inkscape:pageopacity="0"
     inkscape:pagecheckerboard="0"
     inkscape:document-units="px"
     showgrid="false"
     units="px"
     width="1080px"
     inkscape:snap-midpoints="true"
     inkscape:snap-object-midpoints="true"
     showguides="true"
     inkscape:guide-bbox="true"
     inkscape:snap-smooth-nodes="true"
     inkscape:snap-intersection-paths="true"
     inkscape:zoom="0.57370932"
     inkscape:cx="129.8567"
     inkscape:cy="488.92355"
     inkscape:window-width="1920"
     inkscape:window-height="1017"
     inkscape:window-x="-8"
     inkscape:window-y="-8"
     inkscape:window-maximized="1"
     inkscape:current-layer="layer3" />
  <defs
     id="defs855" />
  <g
     inkscape:groupmode="layer"
     id="layer3"
     inkscape:label="bg_diamond"
     style="display:inline">
    <path
       id="rect98420"
       style="fill:#e8901b;fill-opacity:1;stroke:none;stroke-width:1.07116;stroke-miterlimit:4;stroke-dasharray:none;stroke-opacity:1"
       d="m 142.87501,13.411592 -9.92446,9.924459 c 3.29401,-0.08265 6.60642,-0.129186 9.92446,-0.129191 3.31786,-1.1e-5 6.63013,0.04611 9.92394,0.128674 z M 63.89068,92.395917 13.411592,142.87501 142.87501,272.33841 272.33841,142.87501 221.8738,92.410387 c -0.24003,0.582414 -0.53987,1.13438 -0.88367,1.642277 a 3.8058333,3.8058333 0 0 0 0,5.29e-4 3.8058333,3.8058333 0 0 0 0,5.29e-4 3.8058333,3.8058333 0 0 0 0,5.3e-4 3.8058333,3.8058333 0 0 0 0,5.29e-4 c -0.34587,0.512215 -0.74342,0.983512 -1.16788,1.433504 l -8.04086,9.656725 37.73,37.73 -69.57508,69.57508 c 0.27631,0.65044 0.4535,1.36799 0.4563,2.1456 a 3.8058333,3.8058333 0 0 1 0,0.0625 c -0.0154,1.22606 -0.47183,2.37358 -1.06247,3.2303 l -0.0393,-0.0739 a 3.8058333,3.8058333 0 0 1 -0.0724,0.24598 l -33.33594,43.00978 a 3.8058333,3.8058333 0 0 1 -6.01514,0 l -33.33595,-43.00978 a 3.8058333,3.8058333 0 0 1 -0.0336,-0.32815 l -0.0801,0.15245 c -0.5899,-0.85788 -1.04499,-2.00836 -1.05833,-3.23443 a 3.8058333,3.8058333 0 0 1 0,-0.0548 c 0.003,-0.77751 0.17902,-1.49523 0.45527,-2.1456 l -69.5756,-69.5756 37.729996,-37.73 -8.178313,-9.822136 0.122991,0.14056 c -0.270248,-0.293851 -0.524872,-0.598447 -0.763262,-0.917773 l 0.122989,0.156062 -0.289385,-0.347782 a 3.8058333,3.8058333 0 0 1 -0.06253,-0.491961 l -0.114724,0.216525 c -0.357465,-0.518954 -0.667461,-1.08466 -0.916223,-1.682068 z" />
  </g>
  <g
     inkscape:groupmode="layer"
     id="g98377"
     inkscape:label="drill"
     style="display:inline">
    <g
       id="g98375"
       style="stroke:none"
       transform="translate(0,1.5503181)">
      <path
         id="path98351"
         style="display:inline;fill:#f8b32e;fill-opacity:1;stroke:none;stroke-width:0.914665;stroke-miterlimit:4;stroke-dasharray:none;stroke-opacity:1"
         inkscape:transform-center-y="6.5879758"
         d="m 142.875,257.18868 -33.33615,-43.01096 66.67231,-2e-5 z"
         sodipodi:nodetypes="cccc" />
      <path
         id="path98353"
         style="display:inline;fill:#ffcc00;fill-opacity:1;stroke:none;stroke-width:3.457;stroke-miterlimit:4;stroke-dasharray:none;stroke-opacity:1"
         d="M 540,776.87891 A 127.41564,28.387062 0 0 0 412.58398,805.26562 127.41564,28.387062 0 0 0 540,833.65234 127.41564,28.387062 0 0 0 667.41602,805.26562 127.41564,28.387062 0 0 0 540,776.87891 Z m 0,15.89257 a 56.080808,12.494302 0 0 1 1.22266,0.002 56.080808,12.494302 0 0 1 1.22265,0.01 56.080808,12.494302 0 0 1 1.22266,0.0137 56.080808,12.494302 0 0 1 1.2207,0.0215 56.080808,12.494302 0 0 1 1.2168,0.0273 56.080808,12.494302 0 0 1 1.21484,0.0312 56.080808,12.494302 0 0 1 1.21094,0.0391 56.080808,12.494302 0 0 1 1.20703,0.0449 56.080808,12.494302 0 0 1 1.20313,0.0508 56.080808,12.494302 0 0 1 1.19726,0.0547 56.080808,12.494302 0 0 1 1.19141,0.0625 56.080808,12.494302 0 0 1 1.18554,0.0684 56.080808,12.494302 0 0 1 1.17774,0.0723 56.080808,12.494302 0 0 1 1.16992,0.0801 56.080808,12.494302 0 0 1 1.16406,0.084 56.080808,12.494302 0 0 1 1.1543,0.0918 56.080808,12.494302 0 0 1 1.14453,0.0957 56.080808,12.494302 0 0 1 1.13477,0.10157 56.080808,12.494302 0 0 1 1.125,0.10742 56.080808,12.494302 0 0 1 1.11523,0.11133 56.080808,12.494302 0 0 1 1.10352,0.11718 56.080808,12.494302 0 0 1 1.08984,0.125 56.080808,12.494302 0 0 1 1.08008,0.12696 56.080808,12.494302 0 0 1 1.06641,0.13476 56.080808,12.494302 0 0 1 1.05273,0.13867 56.080808,12.494302 0 0 1 1.03906,0.14454 56.080808,12.494302 0 0 1 1.02344,0.14843 56.080808,12.494302 0 0 1 1.00977,0.1543 56.080808,12.494302 0 0 1 0.99414,0.1582 56.080808,12.494302 0 0 1 0.98046,0.16407 56.080808,12.494302 0 0 1 0.96094,0.16796 56.080808,12.494302 0 0 1 0.94727,0.17188 56.080808,12.494302 0 0 1 0.92773,0.17773 56.080808,12.494302 0 0 1 0.91016,0.18164 56.080808,12.494302 0 0 1 0.89453,0.1875 56.080808,12.494302 0 0 1 0.87305,0.18946 56.080808,12.494302 0 0 1 0.85742,0.19531 56.080808,12.494302 0 0 1 0.83594,0.19922 56.080808,12.494302 0 0 1 0.8164,0.20312 56.080808,12.494302 0 0 1 0.79688,0.20704 56.080808,12.494302 0 0 1 0.77539,0.21093 56.080808,12.494302 0 0 1 0.75586,0.21485 56.080808,12.494302 0 0 1 0.73437,0.21679 56.080808,12.494302 0 0 1 0.71289,0.22266 56.080808,12.494302 0 0 1 0.68946,0.22461 56.080808,12.494302 0 0 1 0.66992,0.22851 56.080808,12.494302 0 0 1 0.64453,0.23047 56.080808,12.494302 0 0 1 0.625,0.23438 56.080808,12.494302 0 0 1 0.59961,0.23828 56.080808,12.494302 0 0 1 0.57617,0.24023 56.080808,12.494302 0 0 1 0.55274,0.24219 56.080808,12.494302 0 0 1 0.52929,0.2461 56.080808,12.494302 0 0 1 0.50586,0.24804 56.080808,12.494302 0 0 1 0.48047,0.25196 56.080808,12.494302 0 0 1 0.45508,0.25195 56.080808,12.494302 0 0 1 0.43164,0.25586 56.080808,12.494302 0 0 1 0.40625,0.25781 56.080808,12.494302 0 0 1 0.37891,0.25781 56.080808,12.494302 0 0 1 0.35546,0.26172 56.080808,12.494302 0 0 1 0.33008,0.26172 56.080808,12.494302 0 0 1 0.30469,0.26367 56.080808,12.494302 0 0 1 0.27734,0.26563 56.080808,12.494302 0 0 1 0.25196,0.26757 56.080808,12.494302 0 0 1 0.22461,0.26758 56.080808,12.494302 0 0 1 0.19921,0.26953 56.080808,12.494302 0 0 1 0.17383,0.26954 56.080808,12.494302 0 0 1 0.14649,0.26953 56.080808,12.494302 0 0 1 0.11914,0.27148 56.080808,12.494302 0 0 1 0.0937,0.27149 56.080808,12.494302 0 0 1 0.0664,0.27343 56.080808,12.494302 0 0 1 0.041,0.27149 56.080808,12.494302 0 0 1 0.0117,0.27343 56.080808,12.494302 0 0 1 -0.11914,0.81641 56.080808,12.494302 0 0 1 -0.35938,0.81445 56.080808,12.494302 0 0 1 -0.59765,0.80664 56.080808,12.494302 0 0 1 -0.83399,0.79688 56.080808,12.494302 0 0 1 -1.06445,0.78125 56.080808,12.494302 0 0 1 -1.29297,0.76563 56.080808,12.494302 0 0 1 -1.51562,0.74414 56.080808,12.494302 0 0 1 -1.72852,0.7207 56.080808,12.494302 0 0 1 -1.93945,0.69531 56.080808,12.494302 0 0 1 -2.13672,0.66406 56.080808,12.494302 0 0 1 -2.32813,0.63282 56.080808,12.494302 0 0 1 -2.50976,0.5957 56.080808,12.494302 0 0 1 -2.67774,0.55859 56.080808,12.494302 0 0 1 -2.83594,0.51953 56.080808,12.494302 0 0 1 -2.98437,0.47657 56.080808,12.494302 0 0 1 -3.11523,0.43164 56.080808,12.494302 0 0 1 -3.23633,0.38476 56.080808,12.494302 0 0 1 -3.34375,0.33789 56.080808,12.494302 0 0 1 -3.4336,0.28711 56.080808,12.494302 0 0 1 -3.51172,0.23828 56.080808,12.494302 0 0 1 -3.57421,0.18555 56.080808,12.494302 0 0 1 -3.6211,0.13281 56.080808,12.494302 0 0 1 -3.65234,0.0801 56.080808,12.494302 0 0 1 -3.66797,0.0273 56.080808,12.494302 0 0 1 -3.66797,-0.0273 56.080808,12.494302 0 0 1 -3.65234,-0.0801 56.080808,12.494302 0 0 1 -3.6211,-0.13281 56.080808,12.494302 0 0 1 -3.57421,-0.18555 56.080808,12.494302 0 0 1 -3.51172,-0.23828 56.080808,12.494302 0 0 1 -3.4336,-0.28711 56.080808,12.494302 0 0 1 -3.34375,-0.33789 56.080808,12.494302 0 0 1 -3.23633,-0.38476 56.080808,12.494302 0 0 1 -3.11523,-0.43164 56.080808,12.494302 0 0 1 -2.98437,-0.47657 56.080808,12.494302 0 0 1 -2.83594,-0.51953 56.080808,12.494302 0 0 1 -2.67774,-0.55859 56.080808,12.494302 0 0 1 -2.50976,-0.5957 56.080808,12.494302 0 0 1 -2.32813,-0.63282 56.080808,12.494302 0 0 1 -2.13672,-0.66406 56.080808,12.494302 0 0 1 -1.93945,-0.69531 56.080808,12.494302 0 0 1 -1.72852,-0.7207 56.080808,12.494302 0 0 1 -1.51562,-0.74414 56.080808,12.494302 0 0 1 -1.29297,-0.76563 56.080808,12.494302 0 0 1 -1.06445,-0.78125 56.080808,12.494302 0 0 1 -0.83399,-0.79688 56.080808,12.494302 0 0 1 -0.59765,-0.80664 56.080808,12.494302 0 0 1 -0.35938,-0.81445 56.080808,12.494302 0 0 1 -0.11914,-0.81641 56.080808,12.494302 0 0 1 0.11914,-0.81835 56.080808,12.494302 0 0 1 0.35938,-0.8125 56.080808,12.494302 0 0 1 0.59765,-0.80665 56.080808,12.494302 0 0 1 0.83399,-0.79687 56.080808,12.494302 0 0 1 1.06445,-0.78125 56.080808,12.494302 0 0 1 1.29297,-0.76562 56.080808,12.494302 0 0 1 1.51562,-0.7461 56.080808,12.494302 0 0 1 1.72852,-0.7207 56.080808,12.494302 0 0 1 1.93945,-0.69336 56.080808,12.494302 0 0 1 2.13672,-0.66406 56.080808,12.494302 0 0 1 2.32813,-0.63282 56.080808,12.494302 0 0 1 2.50976,-0.59765 56.080808,12.494302 0 0 1 2.67774,-0.5586 56.080808,12.494302 0 0 1 2.83594,-0.51757 56.080808,12.494302 0 0 1 2.98437,-0.47657 56.080808,12.494302 0 0 1 3.11523,-0.43164 56.080808,12.494302 0 0 1 3.23633,-0.38672 56.080808,12.494302 0 0 1 3.34375,-0.33593 56.080808,12.494302 0 0 1 3.4336,-0.28907 56.080808,12.494302 0 0 1 3.51172,-0.23632 56.080808,12.494302 0 0 1 3.57421,-0.18555 56.080808,12.494302 0 0 1 3.6211,-0.13477 56.080808,12.494302 0 0 1 3.65234,-0.0801 56.080808,12.494302 0 0 1 3.66797,-0.0254 z"
         transform="scale(0.26458333)" />
      <path
         id="path98355"
         style="display:inline;fill:#f8b32e;fill-opacity:1;stroke:none;stroke-width:3.457;stroke-miterlimit:4;stroke-dasharray:none;stroke-opacity:1"
         d="m 360.80664,651.27539 123.11328,153.99023 a 56.080807,12.494302 0 0 0 0.11914,0.81641 56.080807,12.494302 0 0 0 0.35938,0.81445 56.080807,12.494302 0 0 0 0.59765,0.80664 56.080807,12.494302 0 0 0 0.83399,0.79688 56.080807,12.494302 0 0 0 1.06445,0.78125 56.080807,12.494302 0 0 0 1.29297,0.76563 56.080807,12.494302 0 0 0 1.51562,0.74414 56.080807,12.494302 0 0 0 1.72852,0.7207 56.080807,12.494302 0 0 0 1.93945,0.69531 56.080807,12.494302 0 0 0 2.13672,0.66406 56.080807,12.494302 0 0 0 2.32813,0.63282 56.080807,12.494302 0 0 0 2.50976,0.5957 56.080807,12.494302 0 0 0 2.67774,0.55859 56.080807,12.494302 0 0 0 2.83594,0.51953 56.080807,12.494302 0 0 0 2.98437,0.47657 56.080807,12.494302 0 0 0 3.11523,0.43164 56.080807,12.494302 0 0 0 3.23633,0.38476 56.080807,12.494302 0 0 0 3.34375,0.33789 56.080807,12.494302 0 0 0 3.4336,0.28711 56.080807,12.494302 0 0 0 3.51172,0.23828 56.080807,12.494302 0 0 0 3.57421,0.18555 56.080807,12.494302 0 0 0 3.6211,0.13281 56.080807,12.494302 0 0 0 3.65234,0.0801 56.080807,12.494302 0 0 0 3.66797,0.0273 56.080807,12.494302 0 0 0 3.66797,-0.0273 56.080807,12.494302 0 0 0 3.65234,-0.0801 56.080807,12.494302 0 0 0 3.6211,-0.13281 56.080807,12.494302 0 0 0 3.57421,-0.18555 56.080807,12.494302 0 0 0 3.51172,-0.23828 56.080807,12.494302 0 0 0 3.4336,-0.28711 56.080807,12.494302 0 0 0 3.34375,-0.33789 56.080807,12.494302 0 0 0 3.23633,-0.38476 56.080807,12.494302 0 0 0 3.11523,-0.43164 56.080807,12.494302 0 0 0 2.98437,-0.47657 56.080807,12.494302 0 0 0 2.83594,-0.51953 56.080807,12.494302 0 0 0 2.67774,-0.55859 56.080807,12.494302 0 0 0 2.50976,-0.5957 56.080807,12.494302 0 0 0 2.32813,-0.63282 56.080807,12.494302 0 0 0 2.13672,-0.66406 56.080807,12.494302 0 0 0 1.93945,-0.69531 56.080807,12.494302 0 0 0 1.72852,-0.7207 56.080807,12.494302 0 0 0 1.51562,-0.74414 56.080807,12.494302 0 0 0 1.29297,-0.76563 56.080807,12.494302 0 0 0 1.06445,-0.78125 56.080807,12.494302 0 0 0 0.83399,-0.79688 56.080807,12.494302 0 0 0 0.59765,-0.80664 56.080807,12.494302 0 0 0 0.35938,-0.81445 56.080807,12.494302 0 0 0 0.11914,-0.81641 L 719.19336,651.27539 Z"
         transform="scale(0.26458333)" />
      <path
         id="path98357"
         style="display:inline;fill:#ffcc00;fill-opacity:1;stroke:none;stroke-width:3.457;stroke-miterlimit:4;stroke-dasharray:none;stroke-opacity:1"
         d="M 540,604.89258 A 181.21458,40.372979 0 0 0 358.78516,645.26562 181.21458,40.372979 0 0 0 540,685.63867 181.21458,40.372979 0 0 0 721.21484,645.26562 181.21458,40.372979 0 0 0 540,604.89258 Z m 0,15.89258 a 109.87975,24.480219 0 0 1 2.39648,0.006 109.87975,24.480219 0 0 1 2.39649,0.0176 109.87975,24.480219 0 0 1 2.39258,0.0293 109.87975,24.480219 0 0 1 2.39062,0.041 109.87975,24.480219 0 0 1 2.38672,0.0508 109.87975,24.480219 0 0 1 2.37891,0.0644 109.87975,24.480219 0 0 1 2.37304,0.0762 109.87975,24.480219 0 0 1 2.36524,0.0859 109.87975,24.480219 0 0 1 2.35547,0.0996 109.87975,24.480219 0 0 1 2.34765,0.10937 109.87975,24.480219 0 0 1 2.33399,0.1211 109.87975,24.480219 0 0 1 2.32226,0.13281 109.87975,24.480219 0 0 1 2.3086,0.14453 109.87975,24.480219 0 0 1 2.29297,0.1543 109.87975,24.480219 0 0 1 2.27929,0.16601 109.87975,24.480219 0 0 1 2.26172,0.17774 109.87975,24.480219 0 0 1 2.24219,0.1875 109.87975,24.480219 0 0 1 2.22461,0.19922 109.87975,24.480219 0 0 1 2.20508,0.20898 109.87975,24.480219 0 0 1 2.18359,0.2207 109.87975,24.480219 0 0 1 2.16016,0.23243 109.87975,24.480219 0 0 1 2.13867,0.24023 109.87975,24.480219 0 0 1 2.11523,0.25195 109.87975,24.480219 0 0 1 2.08789,0.26172 109.87975,24.480219 0 0 1 2.0625,0.27344 109.87975,24.480219 0 0 1 2.03711,0.28125 109.87975,24.480219 0 0 1 2.00782,0.29102 109.87975,24.480219 0 0 1 1.97851,0.30273 109.87975,24.480219 0 0 1 1.94727,0.31055 109.87975,24.480219 0 0 1 1.91796,0.32031 109.87975,24.480219 0 0 1 1.88477,0.33008 109.87975,24.480219 0 0 1 1.85352,0.33789 109.87975,24.480219 0 0 1 1.82031,0.34766 109.87975,24.480219 0 0 1 1.78516,0.35742 109.87975,24.480219 0 0 1 1.74804,0.36523 109.87975,24.480219 0 0 1 1.71485,0.37305 109.87975,24.480219 0 0 1 1.67578,0.38281 109.87975,24.480219 0 0 1 1.63867,0.38867 109.87975,24.480219 0 0 1 1.59961,0.39844 109.87975,24.480219 0 0 1 1.56055,0.4043 109.87975,24.480219 0 0 1 1.52148,0.41406 109.87975,24.480219 0 0 1 1.48047,0.41992 109.87975,24.480219 0 0 1 1.4375,0.42578 109.87975,24.480219 0 0 1 1.39648,0.43555 109.87975,24.480219 0 0 1 1.35352,0.43945 109.87975,24.480219 0 0 1 1.31055,0.44727 109.87975,24.480219 0 0 1 1.26562,0.45508 109.87975,24.480219 0 0 1 1.2207,0.45898 109.87975,24.480219 0 0 1 1.17578,0.46484 109.87975,24.480219 0 0 1 1.13086,0.47071 109.87975,24.480219 0 0 1 1.08399,0.47656 109.87975,24.480219 0 0 1 1.03515,0.48242 109.87975,24.480219 0 0 1 0.99024,0.48633 109.87975,24.480219 0 0 1 0.9414,0.49023 109.87975,24.480219 0 0 1 0.89258,0.4961 109.87975,24.480219 0 0 1 0.84571,0.5 109.87975,24.480219 0 0 1 0.79492,0.5039 109.87975,24.480219 0 0 1 0.74609,0.50782 109.87975,24.480219 0 0 1 0.69531,0.51172 109.87975,24.480219 0 0 1 0.64454,0.51367 109.87975,24.480219 0 0 1 0.5957,0.51758 109.87975,24.480219 0 0 1 0.54492,0.51953 109.87975,24.480219 0 0 1 0.49219,0.52343 109.87975,24.480219 0 0 1 0.44336,0.52344 109.87975,24.480219 0 0 1 0.39062,0.52735 109.87975,24.480219 0 0 1 0.33789,0.52929 109.87975,24.480219 0 0 1 0.28711,0.5293 109.87975,24.480219 0 0 1 0.23438,0.53125 109.87975,24.480219 0 0 1 0.18359,0.5332 109.87975,24.480219 0 0 1 0.13086,0.53321 109.87975,24.480219 0 0 1 0.0781,0.5332 109.87975,24.480219 0 0 1 0.0254,0.53515 109.87975,24.480219 0 0 1 -0.23438,1.60157 109.87975,24.480219 0 0 1 -0.70508,1.59375 109.87975,24.480219 0 0 1 -1.17187,1.58008 109.87975,24.480219 0 0 1 -1.63281,1.56054 109.87975,24.480219 0 0 1 -2.08594,1.53321 109.87975,24.480219 0 0 1 -2.53321,1.49804 109.87975,24.480219 0 0 1 -2.96679,1.45899 109.87975,24.480219 0 0 1 -3.39063,1.41406 109.87975,24.480219 0 0 1 -3.79687,1.35937 109.87975,24.480219 0 0 1 -4.1875,1.30274 109.87975,24.480219 0 0 1 -4.5625,1.23828 109.87975,24.480219 0 0 1 -4.91406,1.16992 109.87975,24.480219 0 0 1 -5.24805,1.09375 109.87975,24.480219 0 0 1 -5.5586,1.01758 109.87975,24.480219 0 0 1 -5.84374,0.93164 109.87975,24.480219 0 0 1 -6.10743,0.84766 109.87975,24.480219 0 0 1 -6.34179,0.7539 109.87975,24.480219 0 0 1 -6.54883,0.66211 109.87975,24.480219 0 0 1 -6.72852,0.56446 109.87975,24.480219 0 0 1 -6.88086,0.46484 109.87975,24.480219 0 0 1 -7.0039,0.36328 109.87975,24.480219 0 0 1 -7.09375,0.25977 109.87975,24.480219 0 0 1 -7.15625,0.1582 109.87975,24.480219 0 0 1 -7.18555,0.0527 109.87975,24.480219 0 0 1 -7.18555,-0.0527 109.87975,24.480219 0 0 1 -7.15625,-0.1582 109.87975,24.480219 0 0 1 -7.09375,-0.25977 109.87975,24.480219 0 0 1 -7.0039,-0.36328 109.87975,24.480219 0 0 1 -6.88086,-0.46484 109.87975,24.480219 0 0 1 -6.72852,-0.56446 109.87975,24.480219 0 0 1 -6.54883,-0.66211 109.87975,24.480219 0 0 1 -6.34179,-0.7539 109.87975,24.480219 0 0 1 -6.10743,-0.84766 109.87975,24.480219 0 0 1 -5.84374,-0.93164 109.87975,24.480219 0 0 1 -5.5586,-1.01758 109.87975,24.480219 0 0 1 -5.24805,-1.09375 109.87975,24.480219 0 0 1 -4.91406,-1.16992 109.87975,24.480219 0 0 1 -4.5625,-1.23828 109.87975,24.480219 0 0 1 -4.1875,-1.30274 109.87975,24.480219 0 0 1 -3.79687,-1.35937 109.87975,24.480219 0 0 1 -3.39063,-1.41406 109.87975,24.480219 0 0 1 -2.96679,-1.45899 109.87975,24.480219 0 0 1 -2.53321,-1.49804 109.87975,24.480219 0 0 1 -2.08594,-1.53321 109.87975,24.480219 0 0 1 -1.63281,-1.56054 109.87975,24.480219 0 0 1 -1.17187,-1.58008 109.87975,24.480219 0 0 1 -0.70508,-1.59375 109.87975,24.480219 0 0 1 -0.23438,-1.60157 109.87975,24.480219 0 0 1 0.23438,-1.60156 109.87975,24.480219 0 0 1 0.70508,-1.59375 109.87975,24.480219 0 0 1 1.17187,-1.58008 109.87975,24.480219 0 0 1 1.63281,-1.56054 109.87975,24.480219 0 0 1 2.08594,-1.53321 109.87975,24.480219 0 0 1 2.53321,-1.5 109.87975,24.480219 0 0 1 2.96679,-1.45898 109.87975,24.480219 0 0 1 3.39063,-1.41211 109.87975,24.480219 0 0 1 3.79687,-1.36133 109.87975,24.480219 0 0 1 4.1875,-1.30078 109.87975,24.480219 0 0 1 4.5625,-1.23828 109.87975,24.480219 0 0 1 4.91406,-1.16992 109.87975,24.480219 0 0 1 5.24805,-1.0957 109.87975,24.480219 0 0 1 5.5586,-1.01563 109.87975,24.480219 0 0 1 5.84374,-0.93359 109.87975,24.480219 0 0 1 6.10743,-0.84571 109.87975,24.480219 0 0 1 6.34179,-0.7539 109.87975,24.480219 0 0 1 6.54883,-0.66211 109.87975,24.480219 0 0 1 6.72852,-0.56446 109.87975,24.480219 0 0 1 6.88086,-0.46484 109.87975,24.480219 0 0 1 7.0039,-0.36328 109.87975,24.480219 0 0 1 7.09375,-0.26172 109.87975,24.480219 0 0 1 7.15625,-0.15625 109.87975,24.480219 0 0 1 7.18555,-0.0527 z"
         transform="scale(0.26458333)" />
      <path
         id="path98359"
         style="display:inline;fill:#f8b32e;fill-opacity:1;stroke:none;stroke-width:3.457;stroke-miterlimit:4;stroke-dasharray:none;stroke-opacity:1"
         d="m 307.60742,493.05859 122.51367,152.20703 a 109.87975,24.480219 0 0 0 0.23438,1.60157 109.87975,24.480219 0 0 0 0.70508,1.59375 109.87975,24.480219 0 0 0 1.17187,1.58008 109.87975,24.480219 0 0 0 1.63281,1.56054 109.87975,24.480219 0 0 0 2.08594,1.53321 109.87975,24.480219 0 0 0 2.53321,1.49804 109.87975,24.480219 0 0 0 2.96679,1.45899 109.87975,24.480219 0 0 0 3.39063,1.41406 109.87975,24.480219 0 0 0 3.79687,1.35937 109.87975,24.480219 0 0 0 4.1875,1.30274 109.87975,24.480219 0 0 0 4.5625,1.23828 109.87975,24.480219 0 0 0 4.91406,1.16992 109.87975,24.480219 0 0 0 5.24805,1.09375 109.87975,24.480219 0 0 0 5.5586,1.01758 109.87975,24.480219 0 0 0 5.84374,0.93164 109.87975,24.480219 0 0 0 6.10743,0.84766 109.87975,24.480219 0 0 0 6.34179,0.7539 109.87975,24.480219 0 0 0 6.54883,0.66211 109.87975,24.480219 0 0 0 6.72852,0.56446 109.87975,24.480219 0 0 0 6.88086,0.46484 109.87975,24.480219 0 0 0 7.0039,0.36328 109.87975,24.480219 0 0 0 7.09375,0.25977 109.87975,24.480219 0 0 0 7.15625,0.1582 109.87975,24.480219 0 0 0 7.18555,0.0527 109.87975,24.480219 0 0 0 7.18555,-0.0527 109.87975,24.480219 0 0 0 7.15625,-0.1582 109.87975,24.480219 0 0 0 7.09375,-0.25977 109.87975,24.480219 0 0 0 7.0039,-0.36328 109.87975,24.480219 0 0 0 6.88086,-0.46484 109.87975,24.480219 0 0 0 6.72852,-0.56446 109.87975,24.480219 0 0 0 6.54883,-0.66211 109.87975,24.480219 0 0 0 6.34179,-0.7539 109.87975,24.480219 0 0 0 6.10743,-0.84766 109.87975,24.480219 0 0 0 5.84374,-0.93164 109.87975,24.480219 0 0 0 5.5586,-1.01758 109.87975,24.480219 0 0 0 5.24805,-1.09375 109.87975,24.480219 0 0 0 4.91406,-1.16992 109.87975,24.480219 0 0 0 4.5625,-1.23828 109.87975,24.480219 0 0 0 4.1875,-1.30274 109.87975,24.480219 0 0 0 3.79687,-1.35937 109.87975,24.480219 0 0 0 3.39063,-1.41406 109.87975,24.480219 0 0 0 2.96679,-1.45899 109.87975,24.480219 0 0 0 2.53321,-1.49804 109.87975,24.480219 0 0 0 2.08594,-1.53321 109.87975,24.480219 0 0 0 1.63281,-1.56054 109.87975,24.480219 0 0 0 1.17187,-1.58008 109.87975,24.480219 0 0 0 0.70508,-1.59375 109.87975,24.480219 0 0 0 0.23438,-1.60157 L 772.39258,493.05859 Z"
         transform="scale(0.26458333)" />
      <path
         id="path98361"
         style="display:inline;fill:#ffcc00;fill-opacity:1;stroke:none;stroke-width:3.457;stroke-miterlimit:4;stroke-dasharray:none;stroke-opacity:1"
         d="M 540,432.90625 A 235.01352,52.358901 0 0 0 304.98633,485.26562 235.01352,52.358901 0 0 0 540,537.625 235.01352,52.358901 0 0 0 775.01367,485.26562 235.01352,52.358901 0 0 0 540,432.90625 Z m 0,15.89258 a 163.67867,36.466139 0 0 1 3.57031,0.01 163.67867,36.466139 0 0 1 3.56836,0.0254 163.67867,36.466139 0 0 1 3.56641,0.043 163.67867,36.466139 0 0 1 3.56054,0.0605 163.67867,36.466139 0 0 1 3.55274,0.0781 163.67867,36.466139 0 0 1 3.54687,0.0957 163.67867,36.466139 0 0 1 3.53321,0.11328 163.67867,36.466139 0 0 1 3.52344,0.12891 163.67867,36.466139 0 0 1 3.50976,0.14648 163.67867,36.466139 0 0 1 3.49414,0.16406 163.67867,36.466139 0 0 1 3.47852,0.17969 163.67867,36.466139 0 0 1 3.45898,0.19727 163.67867,36.466139 0 0 1 3.43945,0.21484 163.67867,36.466139 0 0 1 3.41602,0.23047 163.67867,36.466139 0 0 1 3.39453,0.24805 163.67867,36.466139 0 0 1 3.36719,0.26367 163.67867,36.466139 0 0 1 3.34375,0.28125 163.67867,36.466139 0 0 1 3.3125,0.29492 163.67867,36.466139 0 0 1 3.28516,0.3125 163.67867,36.466139 0 0 1 3.25195,0.32812 163.67867,36.466139 0 0 1 3.21875,0.34571 163.67867,36.466139 0 0 1 3.18554,0.35937 163.67867,36.466139 0 0 1 3.1504,0.375 163.67867,36.466139 0 0 1 3.11132,0.39063 163.67867,36.466139 0 0 1 3.07227,0.40429 163.67867,36.466139 0 0 1 3.0332,0.41993 163.67867,36.466139 0 0 1 2.99024,0.43554 163.67867,36.466139 0 0 1 2.94726,0.44922 163.67867,36.466139 0 0 1 2.90235,0.46289 163.67867,36.466139 0 0 1 2.85546,0.47656 163.67867,36.466139 0 0 1 2.81055,0.49219 163.67867,36.466139 0 0 1 2.75977,0.50391 163.67867,36.466139 0 0 1 2.70898,0.51953 163.67867,36.466139 0 0 1 2.66016,0.5293 163.67867,36.466139 0 0 1 2.60547,0.54492 163.67867,36.466139 0 0 1 2.55273,0.55664 163.67867,36.466139 0 0 1 2.49805,0.56836 163.67867,36.466139 0 0 1 2.43945,0.58008 163.67867,36.466139 0 0 1 2.38477,0.59179 163.67867,36.466139 0 0 1 2.32422,0.60547 163.67867,36.466139 0 0 1 2.26562,0.61328 163.67867,36.466139 0 0 1 2.20508,0.62696 163.67867,36.466139 0 0 1 2.14258,0.63671 163.67867,36.466139 0 0 1 2.08007,0.64649 163.67867,36.466139 0 0 1 2.01563,0.65625 163.67867,36.466139 0 0 1 1.95117,0.66602 163.67867,36.466139 0 0 1 1.88672,0.67578 163.67867,36.466139 0 0 1 1.81836,0.68554 163.67867,36.466139 0 0 1 1.75195,0.69141 163.67867,36.466139 0 0 1 1.6836,0.70312 163.67867,36.466139 0 0 1 1.61328,0.70899 163.67867,36.466139 0 0 1 1.54492,0.7168 163.67867,36.466139 0 0 1 1.47266,0.7246 163.67867,36.466139 0 0 1 1.40234,0.73243 163.67867,36.466139 0 0 1 1.33203,0.73828 163.67867,36.466139 0 0 1 1.25781,0.74414 163.67867,36.466139 0 0 1 1.1836,0.75 163.67867,36.466139 0 0 1 1.11133,0.75586 163.67867,36.466139 0 0 1 1.0371,0.76172 163.67867,36.466139 0 0 1 0.96094,0.76757 163.67867,36.466139 0 0 1 0.88672,0.76954 163.67867,36.466139 0 0 1 0.81055,0.77539 163.67867,36.466139 0 0 1 0.73437,0.77734 163.67867,36.466139 0 0 1 0.65821,0.7832 163.67867,36.466139 0 0 1 0.58203,0.78516 163.67867,36.466139 0 0 1 0.50586,0.78711 163.67867,36.466139 0 0 1 0.42578,0.78906 163.67867,36.466139 0 0 1 0.35156,0.79297 163.67867,36.466139 0 0 1 0.27148,0.79297 163.67867,36.466139 0 0 1 0.19532,0.79297 163.67867,36.466139 0 0 1 0.11718,0.79687 163.67867,36.466139 0 0 1 0.0371,0.79492 163.67867,36.466139 0 0 1 -0.34961,2.38477 163.67867,36.466139 0 0 1 -1.04882,2.375 163.67867,36.466139 0 0 1 -1.7461,2.35352 163.67867,36.466139 0 0 1 -2.43164,2.32421 163.67867,36.466139 0 0 1 -3.10937,2.28321 163.67867,36.466139 0 0 1 -3.77344,2.23437 163.67867,36.466139 0 0 1 -4.41992,2.17383 163.67867,36.466139 0 0 1 -5.04883,2.10352 163.67867,36.466139 0 0 1 -5.65625,2.02734 163.67867,36.466139 0 0 1 -6.23828,1.93945 163.67867,36.466139 0 0 1 -6.79492,1.84375 163.67867,36.466139 0 0 1 -7.32227,1.74219 163.67867,36.466139 0 0 1 -7.81836,1.63086 163.67867,36.466139 0 0 1 -8.2793,1.51367 163.67867,36.466139 0 0 1 -8.70507,1.39063 163.67867,36.466139 0 0 1 -9.09571,1.25976 163.67867,36.466139 0 0 1 -9.44726,1.125 163.67867,36.466139 0 0 1 -9.75586,0.98438 163.67867,36.466139 0 0 1 -10.02344,0.8418 163.67867,36.466139 0 0 1 -10.25,0.6914 163.67867,36.466139 0 0 1 -10.43164,0.54297 163.67867,36.466139 0 0 1 -10.56641,0.38867 163.67867,36.466139 0 0 1 -10.66015,0.23438 163.67867,36.466139 0 0 1 -10.70508,0.0781 163.67867,36.466139 0 0 1 -10.70508,-0.0781 163.67867,36.466139 0 0 1 -10.66015,-0.23438 163.67867,36.466139 0 0 1 -10.56641,-0.38867 163.67867,36.466139 0 0 1 -10.43164,-0.54297 163.67867,36.466139 0 0 1 -10.25,-0.6914 163.67867,36.466139 0 0 1 -10.02344,-0.8418 163.67867,36.466139 0 0 1 -9.75586,-0.98438 163.67867,36.466139 0 0 1 -9.44726,-1.125 163.67867,36.466139 0 0 1 -9.09571,-1.25976 163.67867,36.466139 0 0 1 -8.70507,-1.39063 163.67867,36.466139 0 0 1 -8.2793,-1.51367 163.67867,36.466139 0 0 1 -7.81836,-1.63086 163.67867,36.466139 0 0 1 -7.32227,-1.74219 163.67867,36.466139 0 0 1 -6.79492,-1.84375 163.67867,36.466139 0 0 1 -6.23828,-1.93945 163.67867,36.466139 0 0 1 -5.65625,-2.02734 163.67867,36.466139 0 0 1 -5.04883,-2.10352 163.67867,36.466139 0 0 1 -4.41992,-2.17383 163.67867,36.466139 0 0 1 -3.77344,-2.23437 163.67867,36.466139 0 0 1 -3.10937,-2.28321 163.67867,36.466139 0 0 1 -2.43164,-2.32421 163.67867,36.466139 0 0 1 -1.7461,-2.35352 163.67867,36.466139 0 0 1 -1.04882,-2.375 163.67867,36.466139 0 0 1 -0.34961,-2.38477 163.67867,36.466139 0 0 1 0.34961,-2.38476 163.67867,36.466139 0 0 1 1.04882,-2.375 163.67867,36.466139 0 0 1 1.7461,-2.35547 163.67867,36.466139 0 0 1 2.43164,-2.32227 163.67867,36.466139 0 0 1 3.10937,-2.28515 163.67867,36.466139 0 0 1 3.77344,-2.23242 163.67867,36.466139 0 0 1 4.41992,-2.17383 163.67867,36.466139 0 0 1 5.04883,-2.10352 163.67867,36.466139 0 0 1 5.65625,-2.02734 163.67867,36.466139 0 0 1 6.23828,-1.93945 163.67867,36.466139 0 0 1 6.79492,-1.84571 163.67867,36.466139 0 0 1 7.32227,-1.74023 163.67867,36.466139 0 0 1 7.81836,-1.63086 163.67867,36.466139 0 0 1 8.2793,-1.51563 163.67867,36.466139 0 0 1 8.70507,-1.38867 163.67867,36.466139 0 0 1 9.09571,-1.25976 163.67867,36.466139 0 0 1 9.44726,-1.125 163.67867,36.466139 0 0 1 9.75586,-0.98633 163.67867,36.466139 0 0 1 10.02344,-0.83984 163.67867,36.466139 0 0 1 10.25,-0.69336 163.67867,36.466139 0 0 1 10.43164,-0.54102 163.67867,36.466139 0 0 1 10.56641,-0.38867 163.67867,36.466139 0 0 1 10.66015,-0.23438 A 163.67867,36.466139 0 0 1 540,448.79883 Z"
         transform="scale(0.26458333)" />
      <path
         id="path98363"
         style="display:inline;fill:#f8b32e;fill-opacity:1;stroke:none;stroke-width:3.457;stroke-miterlimit:4;stroke-dasharray:none;stroke-opacity:1"
         d="m 256.66406,341.55273 119.65625,143.71289 h 0.002 a 163.67867,36.466139 0 0 0 0.34961,2.38477 163.67867,36.466139 0 0 0 1.04882,2.375 163.67867,36.466139 0 0 0 1.7461,2.35352 163.67867,36.466139 0 0 0 2.43164,2.32421 163.67867,36.466139 0 0 0 3.10937,2.28321 163.67867,36.466139 0 0 0 3.77344,2.23437 163.67867,36.466139 0 0 0 4.41992,2.17383 163.67867,36.466139 0 0 0 5.04883,2.10352 163.67867,36.466139 0 0 0 5.65625,2.02734 163.67867,36.466139 0 0 0 6.23828,1.93945 163.67867,36.466139 0 0 0 6.79492,1.84375 163.67867,36.466139 0 0 0 7.32227,1.74219 163.67867,36.466139 0 0 0 7.81836,1.63086 163.67867,36.466139 0 0 0 8.2793,1.51367 163.67867,36.466139 0 0 0 8.70507,1.39063 163.67867,36.466139 0 0 0 9.09571,1.25976 163.67867,36.466139 0 0 0 9.44726,1.125 163.67867,36.466139 0 0 0 9.75586,0.98438 163.67867,36.466139 0 0 0 10.02344,0.8418 163.67867,36.466139 0 0 0 10.25,0.6914 163.67867,36.466139 0 0 0 10.43164,0.54297 163.67867,36.466139 0 0 0 10.56641,0.38867 163.67867,36.466139 0 0 0 10.66015,0.23438 163.67867,36.466139 0 0 0 10.70508,0.0781 163.67867,36.466139 0 0 0 10.70508,-0.0781 163.67867,36.466139 0 0 0 10.66015,-0.23438 163.67867,36.466139 0 0 0 10.56641,-0.38867 163.67867,36.466139 0 0 0 10.43164,-0.54297 163.67867,36.466139 0 0 0 10.25,-0.6914 163.67867,36.466139 0 0 0 10.02344,-0.8418 163.67867,36.466139 0 0 0 9.75586,-0.98438 163.67867,36.466139 0 0 0 9.44726,-1.125 163.67867,36.466139 0 0 0 9.09571,-1.25976 163.67867,36.466139 0 0 0 8.70507,-1.39063 163.67867,36.466139 0 0 0 8.2793,-1.51367 163.67867,36.466139 0 0 0 7.81836,-1.63086 163.67867,36.466139 0 0 0 7.32227,-1.74219 163.67867,36.466139 0 0 0 6.79492,-1.84375 163.67867,36.466139 0 0 0 6.23828,-1.93945 163.67867,36.466139 0 0 0 5.65625,-2.02734 163.67867,36.466139 0 0 0 5.04883,-2.10352 163.67867,36.466139 0 0 0 4.41992,-2.17383 163.67867,36.466139 0 0 0 3.77344,-2.23437 163.67867,36.466139 0 0 0 3.10937,-2.28321 163.67867,36.466139 0 0 0 2.43164,-2.32421 163.67867,36.466139 0 0 0 1.7461,-2.35352 163.67867,36.466139 0 0 0 1.04882,-2.375 163.67867,36.466139 0 0 0 0.34961,-2.38477 L 823.33594,341.55273 Z"
         transform="scale(0.26458333)" />
      <path
         id="path98365"
         style="display:inline;fill:#ffcc00;fill-opacity:1;stroke:none;stroke-width:3.457;stroke-miterlimit:4;stroke-dasharray:none;stroke-opacity:1"
         d="M 540,268.21484 A 286.53059,63.836442 0 0 0 253.46875,332.05078 286.53059,63.836442 0 0 0 540,395.88867 286.53059,63.836442 0 0 0 826.53125,332.05078 286.53059,63.836442 0 0 0 540,268.21484 Z m 0,15.89258 a 215.19575,47.943684 0 0 1 5.36523,0.0156 215.19575,47.943684 0 0 1 5.36133,0.0449 215.19575,47.943684 0 0 1 5.35547,0.0742 215.19575,47.943684 0 0 1 5.34375,0.10351 215.19575,47.943684 0 0 1 5.33203,0.13477 215.19575,47.943684 0 0 1 5.31641,0.16211 215.19575,47.943684 0 0 1 5.29492,0.19336 215.19575,47.943684 0 0 1 5.27148,0.22265 215.19575,47.943684 0 0 1 5.24415,0.25196 215.19575,47.943684 0 0 1 5.21679,0.27929 215.19575,47.943684 0 0 1 5.18164,0.31055 215.19575,47.943684 0 0 1 5.14649,0.33789 215.19575,47.943684 0 0 1 5.10742,0.36719 215.19575,47.943684 0 0 1 5.06445,0.39453 215.19575,47.943684 0 0 1 5.01758,0.42188 215.19575,47.943684 0 0 1 4.9707,0.45117 215.19575,47.943684 0 0 1 4.91797,0.47851 215.19575,47.943684 0 0 1 4.86133,0.50391 215.19575,47.943684 0 0 1 4.80469,0.5332 215.19575,47.943684 0 0 1 4.74414,0.5586 215.19575,47.943684 0 0 1 4.67969,0.58398 215.19575,47.943684 0 0 1 4.61328,0.61133 215.19575,47.943684 0 0 1 4.54297,0.63476 215.19575,47.943684 0 0 1 4.4707,0.66211 215.19575,47.943684 0 0 1 4.39453,0.68555 215.19575,47.943684 0 0 1 4.31641,0.70898 215.19575,47.943684 0 0 1 4.23633,0.73438 215.19575,47.943684 0 0 1 4.15234,0.75586 215.19575,47.943684 0 0 1 4.06836,0.7793 215.19575,47.943684 0 0 1 3.97851,0.80273 215.19575,47.943684 0 0 1 3.88672,0.82422 215.19575,47.943684 0 0 1 3.79297,0.8457 215.19575,47.943684 0 0 1 3.69922,0.86524 215.19575,47.943684 0 0 1 3.59961,0.88671 215.19575,47.943684 0 0 1 3.5,0.90626 215.19575,47.943684 0 0 1 3.39648,0.92578 215.19575,47.943684 0 0 1 3.29297,0.94336 215.19575,47.943684 0 0 1 3.1875,0.96093 215.19575,47.943684 0 0 1 3.07617,0.98047 215.19575,47.943684 0 0 1 2.9668,0.99414 215.19575,47.943684 0 0 1 2.85547,1.01367 215.19575,47.943684 0 0 1 2.74023,1.02735 215.19575,47.943684 0 0 1 2.625,1.04297 215.19575,47.943684 0 0 1 2.50586,1.05664 215.19575,47.943684 0 0 1 2.38868,1.07031 215.19575,47.943684 0 0 1 2.26757,1.08398 215.19575,47.943684 0 0 1 2.14454,1.09375 215.19575,47.943684 0 0 1 2.02343,1.10743 215.19575,47.943684 0 0 1 1.89844,1.11914 215.19575,47.943684 0 0 1 1.77148,1.1289 215.19575,47.943684 0 0 1 1.64454,1.13672 215.19575,47.943684 0 0 1 1.51757,1.14649 215.19575,47.943684 0 0 1 1.38868,1.15429 215.19575,47.943684 0 0 1 1.25976,1.16211 215.19575,47.943684 0 0 1 1.12891,1.16992 215.19575,47.943684 0 0 1 0.99609,1.17383 215.19575,47.943684 0 0 1 0.86719,1.17969 215.19575,47.943684 0 0 1 0.73242,1.18359 215.19575,47.943684 0 0 1 0.60156,1.1875 215.19575,47.943684 0 0 1 0.4668,1.19141 215.19575,47.943684 0 0 1 0.33398,1.19336 215.19575,47.943684 0 0 1 0.20118,1.19336 215.19575,47.943684 0 0 1 0.0664,1.19531 215.19575,47.943684 0 0 1 -0.60156,3.58399 215.19575,47.943684 0 0 1 -1.80078,3.5625 215.19575,47.943684 0 0 1 -2.99219,3.52343 215.19575,47.943684 0 0 1 -4.16601,3.46289 215.19575,47.943684 0 0 1 -5.31446,3.38477 215.19575,47.943684 0 0 1 -6.43554,3.28516 215.19575,47.943684 0 0 1 -7.51954,3.16992 215.19575,47.943684 0 0 1 -8.5625,3.03515 215.19575,47.943684 0 0 1 -9.55664,2.88477 215.19575,47.943684 0 0 1 -10.49609,2.71875 215.19575,47.943684 0 0 1 -11.37891,2.53516 215.19575,47.943684 0 0 1 -12.19921,2.33789 215.19575,47.943684 0 0 1 -12.94727,2.1289 215.19575,47.943684 0 0 1 -13.62695,1.90821 215.19575,47.943684 0 0 1 -14.22852,1.67578 215.19575,47.943684 0 0 1 -14.75,1.43359 215.19575,47.943684 0 0 1 -15.18945,1.18359 215.19575,47.943684 0 0 1 -15.54492,0.92774 215.19575,47.943684 0 0 1 -15.81055,0.66601 215.19575,47.943684 0 0 1 -15.99219,0.40235 215.19575,47.943684 0 0 1 -16.08203,0.13476 215.19575,47.943684 0 0 1 -16.08203,-0.13476 215.19575,47.943684 0 0 1 -15.99219,-0.40235 215.19575,47.943684 0 0 1 -15.81055,-0.66601 215.19575,47.943684 0 0 1 -15.54492,-0.92774 215.19575,47.943684 0 0 1 -15.18945,-1.18359 215.19575,47.943684 0 0 1 -14.75,-1.43359 215.19575,47.943684 0 0 1 -14.22852,-1.67578 215.19575,47.943684 0 0 1 -13.62695,-1.90821 215.19575,47.943684 0 0 1 -12.94727,-2.1289 215.19575,47.943684 0 0 1 -12.19921,-2.33789 215.19575,47.943684 0 0 1 -11.37891,-2.53516 215.19575,47.943684 0 0 1 -10.49609,-2.71875 215.19575,47.943684 0 0 1 -9.55664,-2.88477 215.19575,47.943684 0 0 1 -8.5625,-3.03515 215.19575,47.943684 0 0 1 -7.51954,-3.16992 215.19575,47.943684 0 0 1 -6.43554,-3.28516 215.19575,47.943684 0 0 1 -5.31446,-3.38477 215.19575,47.943684 0 0 1 -4.16601,-3.46289 215.19575,47.943684 0 0 1 -2.99219,-3.52343 215.19575,47.943684 0 0 1 -1.80078,-3.5625 215.19575,47.943684 0 0 1 -0.60156,-3.58399 215.19575,47.943684 0 0 1 0.60156,-3.58203 215.19575,47.943684 0 0 1 1.80078,-3.5625 215.19575,47.943684 0 0 1 2.99219,-3.52344 215.19575,47.943684 0 0 1 4.16601,-3.46289 215.19575,47.943684 0 0 1 5.31446,-3.38476 215.19575,47.943684 0 0 1 6.43554,-3.28516 215.19575,47.943684 0 0 1 7.51954,-3.16992 215.19575,47.943684 0 0 1 8.5625,-3.03516 215.19575,47.943684 0 0 1 9.55664,-2.88476 215.19575,47.943684 0 0 1 10.49609,-2.71875 215.19575,47.943684 0 0 1 11.37891,-2.53516 215.19575,47.943684 0 0 1 12.19921,-2.33789 215.19575,47.943684 0 0 1 12.94727,-2.12891 215.19575,47.943684 0 0 1 13.62695,-1.9082 215.19575,47.943684 0 0 1 14.22852,-1.67578 215.19575,47.943684 0 0 1 14.75,-1.43359 215.19575,47.943684 0 0 1 15.18945,-1.1836 215.19575,47.943684 0 0 1 15.54492,-0.92773 215.19575,47.943684 0 0 1 15.81055,-0.66797 215.19575,47.943684 0 0 1 15.99219,-0.40039 A 215.19575,47.943684 0 0 1 540,284.10742 Z"
         transform="scale(0.26458333)" />
      <path
         id="path98367"
         style="display:inline;fill:#f8b32e;fill-opacity:1;stroke:none;stroke-width:3.457;stroke-miterlimit:4;stroke-dasharray:none;stroke-opacity:1"
         d="m 203.46484,183.33789 121.33985,148.71289 a 215.19575,47.943683 0 0 0 0.60156,3.58399 215.19575,47.943683 0 0 0 1.80078,3.5625 215.19575,47.943683 0 0 0 2.99219,3.52343 215.19575,47.943683 0 0 0 4.16601,3.46289 215.19575,47.943683 0 0 0 5.31446,3.38477 215.19575,47.943683 0 0 0 6.43554,3.28516 215.19575,47.943683 0 0 0 7.51954,3.16992 215.19575,47.943683 0 0 0 8.5625,3.03515 215.19575,47.943683 0 0 0 9.55664,2.88477 215.19575,47.943683 0 0 0 10.49609,2.71875 215.19575,47.943683 0 0 0 11.37891,2.53516 215.19575,47.943683 0 0 0 12.19921,2.33789 215.19575,47.943683 0 0 0 12.94727,2.1289 215.19575,47.943683 0 0 0 13.62695,1.90821 215.19575,47.943683 0 0 0 14.22852,1.67578 215.19575,47.943683 0 0 0 14.75,1.43359 215.19575,47.943683 0 0 0 15.18945,1.18359 215.19575,47.943683 0 0 0 15.54492,0.92774 215.19575,47.943683 0 0 0 15.81055,0.66601 215.19575,47.943683 0 0 0 15.99219,0.40235 215.19575,47.943683 0 0 0 16.08203,0.13476 215.19575,47.943683 0 0 0 16.08203,-0.13476 215.19575,47.943683 0 0 0 15.99219,-0.40235 215.19575,47.943683 0 0 0 15.81055,-0.66601 215.19575,47.943683 0 0 0 15.54492,-0.92774 215.19575,47.943683 0 0 0 15.18945,-1.18359 215.19575,47.943683 0 0 0 14.75,-1.43359 215.19575,47.943683 0 0 0 14.22852,-1.67578 215.19575,47.943683 0 0 0 13.62695,-1.90821 215.19575,47.943683 0 0 0 12.94727,-2.1289 215.19575,47.943683 0 0 0 12.19921,-2.33789 215.19575,47.943683 0 0 0 11.37891,-2.53516 215.19575,47.943683 0 0 0 10.49609,-2.71875 215.19575,47.943683 0 0 0 9.55664,-2.88477 215.19575,47.943683 0 0 0 8.5625,-3.03515 215.19575,47.943683 0 0 0 7.51954,-3.16992 215.19575,47.943683 0 0 0 6.43554,-3.28516 215.19575,47.943683 0 0 0 5.31446,-3.38477 215.19575,47.943683 0 0 0 4.16601,-3.46289 215.19575,47.943683 0 0 0 2.99219,-3.52343 215.19575,47.943683 0 0 0 1.80078,-3.5625 215.19575,47.943683 0 0 0 0.60156,-3.58399 L 876.53516,183.33789 Z"
         transform="scale(0.26458333)" />
      <ellipse
         style="fill:#ffcc00;fill-opacity:1;stroke:none;stroke-width:0.914665;stroke-miterlimit:4;stroke-dasharray:none;stroke-opacity:1"
         id="ellipse98369"
         cx="142.875"
         cy="45.522018"
         rx="90.045525"
         ry="20.061335" />
      <ellipse
         style="display:inline;fill:#f8b32e;fill-opacity:1;stroke:none;stroke-width:0.914665;stroke-miterlimit:4;stroke-dasharray:none;stroke-opacity:1;paint-order:normal"
         id="ellipse98371"
         cx="142.81198"
         cy="45.520866"
         rx="71.185738"
         ry="15.847537" />
      <path
         id="path98373"
         style="display:inline;fill:#e8901b;fill-opacity:1;stroke:none;stroke-width:0.914665;stroke-linecap:butt;stroke-linejoin:miter;stroke-miterlimit:4;stroke-dasharray:none;stroke-opacity:1"
         d="m 175.20487,33.552918 c -0.1247,-2.59e-4 -0.26699,-2.59e-4 -0.42555,1.72e-4 -1.90261,0.0053 -6.09622,0.07408 -9.19713,0.540444 -4.34694,0.653761 -5.91081,2.437732 -5.91081,2.437732 l -0.54671,0.642095 c -0.11605,0.104519 -0.19082,0.18071 -0.19082,0.18071 l -5.74119,6.737856 -14.91259,-7.367476 c 0,0 -0.5702,-0.01521 -1.56441,-0.01231 v -1.72e-4 c -2.18728,0.0064 -6.4262,0.100651 -11.15906,0.638217 -4.87188,0.55336 -6.55293,2.735262 -6.55293,2.735262 l -0.43313,0.465936 -7.8e-4,6.91e-4 c -0.23861,0.216674 -0.3468,0.356026 -0.3468,0.356026 l -12.87568,13.838146 c 0,0 -0.60392,0.922539 2.08236,1.738324 1.66992,0.50713 4.04482,0.86042 7.97952,0.999299 l 5.43907,0.0052 1.49323,-0.857699 11.2045,-11.238078 11.15831,5.597799 c 0,0 1.62409,0.805164 5.84796,1.466078 3.71422,0.581166 8.76324,0.600794 8.76324,0.600794 l 4.89388,-0.01163 1.44098,-0.815555 14.68465,-18.66641 -4.54253,-0.0078 c 0,0 -0.2133,-0.0029 -0.5876,-0.0037 z" />
    </g>
  </g>
</svg>
